<?xml version="1.0" encoding="UTF-8"?>
<svg id="Livello_2" data-name="Livello 2" xmlns="http://www.w3.org/2000/svg" viewBox="0 0 958.83 227.02">
  <defs>
    <style>
      .cls-1 {
        fill: #f24b6a;
      }
    </style>
  </defs>
  <g id="Livello_1-2" data-name="Livello 1">
    <g>
      <g>
        <path d="m127.84,23.28v27.94h-47.22v129.87h-33.19V51.22H0v-27.94h127.84Z"/>
        <path d="m207.46,146.83c-.79,6.92-4.39,13.96-10.81,21.09-9.99,11.35-23.98,17.02-41.97,17.02-14.85,0-27.94-4.78-39.29-14.35-11.35-9.56-17.02-25.12-17.02-46.68,0-20.2,5.12-35.69,15.36-46.47,10.24-10.78,23.54-16.17,39.88-16.17,9.71,0,18.45,1.82,26.23,5.46,7.78,3.64,14.2,9.39,19.27,17.24,4.57,6.92,7.53,14.95,8.89,24.09.78,5.35,1.11,13.06.96,23.13h-79.87c.43,11.71,4.1,19.91,11.03,24.62,4.21,2.93,9.28,4.39,15.2,4.39,6.28,0,11.38-1.78,15.31-5.35,2.14-1.93,4.03-4.6,5.67-8.03h31.16Zm-30.19-35.76c-.5-8.06-2.94-14.19-7.33-18.36-4.39-4.18-9.83-6.26-16.33-6.26-7.07,0-12.55,2.21-16.43,6.64-3.89,4.43-6.34,10.42-7.33,17.99h47.43Z"/>
        <path d="m289.12,96.51c-2.57-5.64-7.6-8.46-15.1-8.46-8.71,0-14.56,2.82-17.56,8.46-1.64,3.21-2.46,8-2.46,14.35v70.23h-30.94v-116.49h29.66v17.02c3.78-6.07,7.35-10.39,10.71-12.96,5.92-4.57,13.6-6.85,23.02-6.85,8.92,0,16.13,1.96,21.63,5.89,4.42,3.64,7.78,8.32,10.06,14.03,4-6.85,8.96-11.88,14.88-15.1,6.28-3.21,13.28-4.82,20.98-4.82,5.14,0,10.21,1,15.2,3,5,2,9.53,5.5,13.6,10.49,3.28,4.07,5.5,9.07,6.64,14.99.71,3.93,1.07,9.67,1.07,17.24l-.21,73.55h-31.26v-74.3c0-4.42-.71-8.06-2.14-10.92-2.71-5.42-7.71-8.14-14.99-8.14-8.42,0-14.24,3.5-17.45,10.49-1.64,3.71-2.46,8.17-2.46,13.38v69.49h-30.73v-69.49c0-6.92-.71-11.95-2.14-15.1Z"/>
        <path d="m504.99,76.92c9.42,10.06,14.13,24.84,14.13,44.33,0,20.56-4.62,36.22-13.86,47-9.24,10.78-21.15,16.17-35.71,16.17-9.28,0-16.99-2.32-23.13-6.96-3.36-2.57-6.64-6.32-9.85-11.24v60.81h-30.19V64.39h29.23v17.24c3.28-5.07,6.78-9.06,10.49-11.99,6.78-5.21,14.85-7.82,24.2-7.82,13.63,0,25.2,5.03,34.69,15.1Zm-17.34,45.82c0-8.99-2.05-16.95-6.16-23.88-4.11-6.92-10.76-10.39-19.97-10.39-11.06,0-18.67,5.25-22.8,15.74-2.14,5.57-3.21,12.63-3.21,21.2,0,13.56,3.6,23.09,10.81,28.59,4.28,3.21,9.35,4.82,15.2,4.82,8.49,0,14.97-3.28,19.43-9.85,4.46-6.57,6.69-15.31,6.69-26.23Z"/>
        <path d="m634.28,79.17c9.85,12.35,14.78,26.95,14.78,43.79s-4.93,31.78-14.78,43.95c-9.85,12.17-24.8,18.25-44.86,18.25s-35.01-6.08-44.86-18.25c-9.85-12.17-14.77-26.82-14.77-43.95s4.92-31.44,14.77-43.79c9.85-12.35,24.8-18.52,44.86-18.52s35.01,6.17,44.86,18.52Zm-44.97,7.28c-8.92,0-15.79,3.16-20.61,9.48-4.82,6.32-7.23,15.33-7.23,27.03s2.41,20.74,7.23,27.09c4.82,6.35,11.69,9.53,20.61,9.53s15.77-3.18,20.56-9.53c4.78-6.35,7.17-15.38,7.17-27.09s-2.39-20.72-7.17-27.03c-4.78-6.32-11.63-9.48-20.56-9.48Z"/>
      </g>
      <g>
        <rect class="cls-1" x="827.72" width="11.92" height="227.02"/>
        <rect class="cls-1" x="803.88" y="17.88" width="11.92" height="167.43"/>
        <rect class="cls-1" x="780.05" y="35.76" width="11.92" height="53.64"/>
        <rect class="cls-1" x="708.53" y="35.76" width="11.92" height="53.64"/>
        <rect class="cls-1" x="946.92" y="35.76" width="11.92" height="53.64"/>
        <rect class="cls-1" x="756.21" y="17.88" width="11.92" height="89.39"/>
        <rect class="cls-1" x="899.24" y="17.88" width="11.92" height="89.39"/>
        <rect class="cls-1" x="732.37" width="11.92" height="125.15"/>
        <rect class="cls-1" x="923.08" width="11.92" height="125.15"/>
        <rect class="cls-1" x="875.4" y="35.76" width="11.92" height="53.64"/>
        <rect class="cls-1" x="851.56" y="17.88" width="11.92" height="167.43"/>
      </g>
    </g>
  </g>
</svg>