<svg id="b7e280a8-b3d1-4693-8f85-1d104e0d035a" data-name="Layer 1" xmlns="http://www.w3.org/2000/svg" width="794.12364" height="651.84912" viewBox="0 0 794.12364 651.84912"><path d="M986.37578,124.07544H368.2459c-.11719,1.9856-.18408,3.98486-.18408,6A100.03166,100.03166,0,0,0,432.59356,223.595a100.01006,100.01006,0,0,0,163.63818,58.32587,100.029,100.029,0,0,0,77.83008,51.65307V765.07544h26V332.7962a99.50134,99.50134,0,0,0,43.22461-18.14434A100.00587,100.00587,0,0,0,913.7127,267.68762a100.02791,100.02791,0,0,0,72.66308-143.61218Z" transform="translate(-202.93818 -124.07544)" fill="#e6e6e6"/><path d="M595.70074,659.14966a14.09608,14.09608,0,0,1-1.50025-.08008L479.21978,646.79224a6.49967,6.49967,0,0,1-5.7732-7.15332l1.56714-14.67627.49707.05322-.49707-.05322a6.50744,6.50744,0,0,1,7.15308-5.773L597.14751,631.467a13.88065,13.88065,0,0,1-1.44677,27.68262Z" transform="translate(-202.93818 -124.07544)" fill="#6c63ff"/><path d="M538.0208,763.95728H415.00664a6.50737,6.50737,0,0,1-6.5-6.5V742.698a6.50736,6.50736,0,0,1,6.5-6.5H538.0208a6.50736,6.50736,0,0,1,6.5,6.5v14.75928A6.50737,6.50737,0,0,1,538.0208,763.95728Z" transform="translate(-202.93818 -124.07544)" fill="#6c63ff"/><path d="M600.42022,758.8728a6.48866,6.48866,0,0,1-2.04468-.33105L481.564,719.9729a6.50739,6.50739,0,0,1-4.13453-8.21l4.62769-14.01514.47485.15674-.47485-.15674a6.5,6.5,0,0,1,8.21021-4.13427l116.81152,38.56884a6.50738,6.50738,0,0,1,4.13452,8.21L606.58574,754.408a6.50923,6.50923,0,0,1-6.16552,4.46484Z" transform="translate(-202.93818 -124.07544)" fill="#6c63ff"/><path d="M445.85039,764.179q-.17138,0-.34375-.00928a6.45571,6.45571,0,0,1-4.4917-2.13867l-9.88354-10.96143a6.50781,6.50781,0,0,1,.47461-9.18018l52.42505-47.269a6.501,6.501,0,0,1,9.18017.47461l9.88355,10.96191a6.5078,6.5078,0,0,1-.47461,9.18018l-52.425,47.269A6.45334,6.45334,0,0,1,445.85039,764.179Z" transform="translate(-202.93818 -124.07544)" fill="#6c63ff"/><circle cx="406.53849" cy="417.61645" r="51" fill="#6c63ff"/><path d="M634.35747,764.19165H526.23614a6.48606,6.48606,0,0,1-5.6294-9.75l83.24072-144.17676a6.50019,6.50019,0,0,1,11.25855,0l54.06055,93.63574a40.1941,40.1941,0,0,1-34.80909,60.291Z" transform="translate(-202.93818 -124.07544)" fill="#2f2e41"/><path d="M567.439,561.10083c-3.30591-.0918-7.42017-.20654-10.58985-2.522a8.13388,8.13388,0,0,1-3.20019-6.07227,5.4712,5.4712,0,0,1,1.86035-4.49365c1.65527-1.39941,4.07251-1.727,6.67822-.96143l-2.69922-19.72558,1.98145-.27149,3.17334,23.18994-1.65454-.75927c-1.91846-.87989-4.55176-1.32715-6.18824.05517a3.51538,3.51538,0,0,0-1.15258,2.89551,6.14748,6.14748,0,0,0,2.3811,4.52783c2.4668,1.80176,5.74634,2.03418,9.46582,2.13819Z" transform="translate(-202.93818 -124.07544)" fill="#2f2e41"/><rect x="369.97935" y="404.95166" width="10.77173" height="2" fill="#2f2e41"/><path d="M639.7152,481.54414A42.23316,42.23316,0,0,1,660.961,454.2662a40.88249,40.88249,0,0,1,35.08343-1.08855,40.41676,40.41676,0,0,1,23.24352,27.14312,42.1531,42.1531,0,0,1,.64008,18.48856,47.95818,47.95818,0,0,1-8.0982,18.00169c-3.9508,5.72092-8.59517,10.91287-12.85934,16.39413a152.005,152.005,0,0,0-11.666,17.29982,153.06634,153.06634,0,0,0-19.57443,59.127,91.18047,91.18047,0,0,0-.45936,18.98441c1.14841,12.28626,5.908,24.3202,16.83276,31.00545,5.80821,3.55426,12.51116,5.38973,19.14249,6.67364A87.12581,87.12581,0,0,0,725.9032,668.066c12.84322-.91272,25.69541-6.27229,33.15426-17.18692a30.62124,30.62124,0,0,0,3.83791-7.885c.59406-1.84171-2.30161-2.63045-2.89284-.79752-3.95064,12.24768-15.94007,19.79725-28.07419,22.0992a68.67431,68.67431,0,0,1-22.82578-.02232c-6.86227-1.02461-13.93419-2.44295-20.22351-5.4712a30.28378,30.28378,0,0,1-13.55921-12.53542,44.19234,44.19234,0,0,1-4.99446-17.08815c-1.33665-13.08393.84031-26.62931,4.1-39.28453a151.20323,151.20323,0,0,1,15.8988-38.61333,148.48743,148.48743,0,0,1,11.8142-17.286c4.29733-5.4174,8.88172-10.62682,12.75738-16.36565a49.30412,49.30412,0,0,0,7.9251-18.02228,45.67569,45.67569,0,0,0-.32554-18.785,43.28823,43.28823,0,0,0-21.89084-28.7746c-10.8077-5.70122-23.97567-7.06627-35.53663-2.86524a45.38616,45.38616,0,0,0-25.41035,23.37466,43.26824,43.26824,0,0,0-2.83512,8.18994c-.44179,1.87769,2.45014,2.67907,2.89283.79752Z" transform="translate(-202.93818 -124.07544)" fill="#2f2e41"/><path d="M649.46293,483.983a23.09365,23.09365,0,0,1,26.96648-14.86119c1.87808.43926,2.67967-2.45262.79752-2.89283a25.81523,25.81523,0,0,0-30.65684,16.9565c-.62926,1.82957,2.2676,2.61541,2.89284.79752Z" transform="translate(-202.93818 -124.07544)" fill="#2f2e41"/><path d="M644.85943,498.15356a5.47036,5.47036,0,0,1-2.16407-.44677l-13.781-5.92334a5.50014,5.50014,0,1,1,4.3435-10.10645l13.78125,5.92334a5.50012,5.50012,0,0,1-2.17968,10.55322Z" transform="translate(-202.93818 -124.07544)" fill="#2f2e41"/><path d="M942.42288,765.00987h-738.294a1.19068,1.19068,0,1,1,0-2.38136h738.294a1.19068,1.19068,0,1,1,0,2.38136Z" transform="translate(-202.93818 -124.07544)" fill="#3f3d56"/><path d="M624.6751,524.10535l-6.249-40.4903c-.26123-1.69293-2.84473-2.6994-5.77-2.248l-12.13672,1.873c-2.92529.4516-5.08545,2.19-4.82422,3.883l5.9834,38.7691a21.4811,21.4811,0,1,0,22.99658-1.78686Z" transform="translate(-202.93818 -124.07544)" fill="#ccc"/><circle cx="411.62361" cy="419.00001" r="9.46001" fill="#ff6584"/><path d="M450.19341,658.93677a11.94314,11.94314,0,0,1-7.8269-2.89844l-56.834-49.10156a11.98317,11.98317,0,0,1-1.2334-16.90186q.28528-.33031.59424-.63916l58.88013-58.87988a11.98178,11.98178,0,0,1,16.94653,0l52.96753,52.96728a11.997,11.997,0,0,1,0,16.94678L458.67388,655.4436A11.96515,11.96515,0,0,1,450.19341,658.93677Zm-64.593-68.834.707.707c-.17138.17139-.33667.34961-.49511.53272a9.98271,9.98271,0,0,0,1.02783,14.08057l56.834,49.10156a10.02187,10.02187,0,0,0,13.5857-.49512l55.01367-55.01367a9.99549,9.99549,0,0,0,0-14.11865L459.306,531.92993a9.98252,9.98252,0,0,0-14.11841,0l-58.88013,58.87988Z" transform="translate(-202.93818 -124.07544)" fill="#3f3d56"/><path d="M446.7791,641.33813l-45.98071-41.84765,52.94824-52.94824,43.91431,43.91406Zm-43.08422-41.916,43.01928,39.15234,48.11817-48.11816-41.0857-41.08594Z" transform="translate(-202.93818 -124.07544)" fill="#3f3d56"/><circle cx="247.30857" cy="469.38105" r="24.6109" fill="#ccc"/><path d="M462.34663,588.56582c2.935,2.75775,3.09021,12.68494-1.39111,17.45429s-11.90228,2.57486-14.83728-.1829-.27265-5.03445,4.20874-9.8038S459.41163,585.80807,462.34663,588.56582Z" transform="translate(-202.93818 -124.07544)" fill="#fff"/><circle cx="234.42402" cy="469.78227" r="7.29211" fill="#3f3d56"/><circle cx="247.53159" cy="455.83229" r="7.29211" fill="#3f3d56"/><path d="M615.46392,775.92456a6.50044,6.50044,0,0,1-6.468-5.97461l-9.35766-115.25488a13.87975,13.87975,0,1,1,27.66845-2.24658l9.35742,115.25537a6.50784,6.50784,0,0,1-5.95239,7.00488l-14.71118,1.19434C615.8211,775.91724,615.6419,775.92456,615.46392,775.92456Z" transform="translate(-202.93818 -124.07544)" fill="#6c63ff"/></svg>